<svg width="87" height="75" viewBox="0 0 87 75" fill="none" xmlns="http://www.w3.org/2000/svg">
<path d="M77.4175 74.9667H9.0825C6.67367 74.9667 4.3635 74.0098 2.6602 72.3065C0.956903 70.6032 0 68.293 0 65.8842V23.0667H86.5V65.8842C86.5 68.293 85.5431 70.6032 83.8398 72.3065C82.1365 74.0098 79.8263 74.9667 77.4175 74.9667ZM5.76667 28.8333V65.8842C5.76667 66.7636 6.11601 67.607 6.73785 68.2288C7.04576 68.5367 7.41129 68.781 7.81359 68.9476C8.21588 69.1142 8.64706 69.2 9.0825 69.2H77.4175C78.2969 69.2 79.1403 68.8507 79.7622 68.2288C80.384 67.607 80.7333 66.7636 80.7333 65.8842V28.8333H5.76667Z" fill="white"/>
<path d="M86.5 28.8333H0V9.0825C0 6.67367 0.956903 4.3635 2.6602 2.6602C4.3635 0.956903 6.67367 0 9.0825 0H77.4175C79.8263 0 82.1365 0.956903 83.8398 2.6602C85.5431 4.3635 86.5 6.67367 86.5 9.0825V28.8333ZM5.76667 23.0667H80.7333V9.0825C80.7333 8.20309 80.384 7.35969 79.7622 6.73785C79.1403 6.11601 78.2969 5.76667 77.4175 5.76667H9.0825C8.20309 5.76667 7.35969 6.11601 6.73785 6.73785C6.11601 7.35969 5.76667 8.20309 5.76667 9.0825V23.0667Z" fill="white"/>
<path d="M44.9478 1.58516L36.9876 25.0085L42.4476 26.864L50.4078 3.4407L44.9478 1.58516Z" fill="white"/>
<path d="M67.1674 1.57868L59.2113 25.0034L64.6716 26.858L72.6277 3.43327L67.1674 1.57868Z" fill="white"/>
<path d="M21.8193 1.59643L13.859 25.0198L19.319 26.8753L27.2793 3.45197L21.8193 1.59643Z" fill="white"/>
<path d="M2.8833 25.95V65.8842C2.8833 67.5283 3.53643 69.1051 4.69899 70.2676C5.86156 71.4302 7.43835 72.0833 9.08247 72.0833H77.4175C79.0616 72.0833 80.6384 71.4302 81.8009 70.2676C82.9635 69.1051 83.6166 67.5283 83.6166 65.8842V25.95H2.8833ZM54.149 49.0167L38.4636 59.2237C38.4162 59.2545 38.3614 59.2722 38.3049 59.2747C38.2484 59.2773 38.1922 59.2647 38.1422 59.2382C38.0922 59.2117 38.0502 59.1723 38.0205 59.1242C37.9908 59.076 37.9746 59.0207 37.9735 58.9642V38.7808C37.9746 38.7243 37.9908 38.669 38.0205 38.6208C38.0502 38.5727 38.0922 38.5333 38.1422 38.5068C38.1922 38.4803 38.2484 38.4677 38.3049 38.4703C38.3614 38.4728 38.4162 38.4905 38.4636 38.5213L54.149 48.6418C54.1804 48.6715 54.2054 48.7072 54.2225 48.7469C54.2396 48.7866 54.2484 48.8293 54.2484 48.8725C54.2484 48.9157 54.2396 48.9584 54.2225 48.9981C54.2054 49.0378 54.1804 49.0735 54.149 49.1032V49.0167Z" fill="white"/>
</svg>
