<svg width="17" height="20" viewBox="0 0 17 20" fill="none" xmlns="http://www.w3.org/2000/svg">
<g clip-path="url(#clip0_25_251)">
<path d="M16.4675 6.82353C15.0747 7.64706 14.2145 9.05882 14.2145 10.6275C14.2145 12.3922 15.3205 14 17 14.6667C16.6723 15.6863 16.1807 16.6275 15.5663 17.4902C14.6651 18.7059 13.7229 19.9608 12.3301 19.9608C10.9373 19.9608 10.5277 19.1765 8.88916 19.1765C7.29157 19.1765 6.71807 20 5.40723 20C4.09639 20 3.19518 18.8627 2.17108 17.451C0.819277 15.4902 0.0409639 13.2157 0 10.8235C0 6.94118 2.62169 4.86274 5.24337 4.86274C6.63614 4.86274 7.78313 5.72549 8.64337 5.72549C9.46265 5.72549 10.7735 4.82353 12.3301 4.82353C13.9687 4.78431 15.5253 5.52941 16.4675 6.82353ZM11.5928 3.17647C12.2892 2.39216 12.6578 1.41176 12.6988 0.392157C12.6988 0.27451 12.6988 0.117647 12.6578 0C11.4699 0.117647 10.3639 0.666667 9.58554 1.52941C8.88916 2.27451 8.47952 3.21569 8.43855 4.23529C8.43855 4.35294 8.43855 4.47059 8.47952 4.58824C8.56145 4.58824 8.68434 4.62745 8.76626 4.62745C9.87229 4.54902 10.8964 4 11.5928 3.17647Z" fill="white"/>
</g>
<defs>
<clipPath id="clip0_25_251">
<rect width="17" height="20" fill="white"/>
</clipPath>
</defs>
</svg>
