<svg width="20" height="20" viewBox="0 0 20 20" fill="none" xmlns="http://www.w3.org/2000/svg">
<path d="M19.6 10.2272C19.6 9.51813 19.5364 8.83631 19.4182 8.18176H10V12.0499H15.3818C15.15 13.2999 14.4455 14.359 13.3864 15.0681V17.5772H16.6182C18.5091 15.8363 19.6 13.2727 19.6 10.2272Z" fill="white"/>
<path d="M9.99996 20C12.7 20 14.9636 19.1046 16.6181 17.5773L13.3863 15.0682C12.4909 15.6682 11.3454 16.0228 9.99996 16.0228C7.39542 16.0228 5.19087 14.2637 4.40451 11.9H1.0636V14.4909C2.70905 17.7591 6.09087 20 9.99996 20Z" fill="white"/>
<path d="M4.40455 11.8999C4.20455 11.2999 4.09091 10.659 4.09091 9.99994C4.09091 9.34085 4.20455 8.69994 4.40455 8.09994V5.50903H1.06364C0.363636 6.90254 -0.000616932 8.4405 7.84351e-07 9.99994C7.84351e-07 11.6136 0.386364 13.1409 1.06364 14.4909L4.40455 11.8999Z" fill="white"/>
<path d="M9.99996 3.97727C11.4681 3.97727 12.7863 4.48182 13.8227 5.47273L16.6909 2.60455C14.9591 0.990909 12.6954 0 9.99996 0C6.09087 0 2.70905 2.24091 1.0636 5.50909L4.40451 8.1C5.19087 5.73636 7.39542 3.97727 9.99996 3.97727Z" fill="white"/>
</svg>
