<svg width="25" height="25" viewBox="0 0 25 25" fill="none" xmlns="http://www.w3.org/2000/svg">
<path d="M8.78311 23.9473L8.94122 24.4217L8.78311 23.9473ZM16.5331 21.364L16.6912 21.8384H16.6912L16.5331 21.364ZM23.8738 5.50127L23.5202 5.14771L23.8738 5.50127ZM7.8321 12.2071L8.18565 11.8536L7.8321 12.2071ZM1.83334 1.33337H23.1667V0.333374H1.83334V1.33337ZM1.33334 4.79416V1.83337H0.333336V4.79416H1.33334ZM8.18565 11.8536L1.47978 5.14771L0.772676 5.85482L7.47855 12.5607L8.18565 11.8536ZM7.62499 12.9142V23.473H8.62499V12.9142H7.62499ZM7.62499 23.473C7.62499 24.1556 8.29369 24.6375 8.94122 24.4217L8.62499 23.473H8.62499H7.62499ZM8.94122 24.4217L16.6912 21.8384L16.375 20.8897L8.62499 23.473L8.94122 24.4217ZM16.6912 21.8384C17.0996 21.7022 17.375 21.3201 17.375 20.8897H16.375L16.375 20.8897L16.6912 21.8384ZM17.375 20.8897V12.9143H16.375V20.8897H17.375ZM23.5202 5.14771L16.8143 11.8536L17.5214 12.5607L24.2273 5.85482L23.5202 5.14771ZM23.6667 1.83337V4.79416H24.6667V1.83337H23.6667ZM24.2273 5.85482C24.5086 5.57352 24.6667 5.19198 24.6667 4.79416H23.6667C23.6667 4.92677 23.614 5.05395 23.5202 5.14771L24.2273 5.85482ZM17.375 12.9143C17.375 12.7817 17.4277 12.6545 17.5214 12.5607L16.8143 11.8536C16.533 12.1349 16.375 12.5164 16.375 12.9143H17.375ZM7.47855 12.5607C7.57231 12.6545 7.62499 12.7816 7.62499 12.9142H8.62499C8.62499 12.5164 8.46696 12.1349 8.18565 11.8536L7.47855 12.5607ZM0.333336 4.79416C0.333336 5.19199 0.491371 5.57352 0.772676 5.85482L1.47978 5.14771C1.38601 5.05395 1.33334 4.92677 1.33334 4.79416H0.333336ZM23.1667 1.33337C23.4428 1.33337 23.6667 1.55723 23.6667 1.83337H24.6667C24.6667 1.00495 23.9951 0.333374 23.1667 0.333374V1.33337ZM1.83334 0.333374C1.00491 0.333374 0.333336 1.00495 0.333336 1.83337H1.33334C1.33334 1.55723 1.55719 1.33337 1.83334 1.33337V0.333374Z" fill="white"/>
</svg>
