<svg width="5" height="25" viewBox="0 0 5 25" fill="none" xmlns="http://www.w3.org/2000/svg">
<path d="M2.49996 24.3124C1.82967 24.3124 1.25586 24.0737 0.778516 23.5964C0.301172 23.1191 0.0625 22.5452 0.0625 21.875C0.0625 21.2046 0.301172 20.6308 0.778516 20.1535C1.25586 19.6762 1.82967 19.4375 2.49996 19.4375C3.17024 19.4375 3.74406 19.6762 4.2214 20.1535C4.69875 20.6308 4.93742 21.2046 4.93742 21.875C4.93742 22.5452 4.69875 23.1191 4.2214 23.5964C3.74406 24.0737 3.17024 24.3124 2.49996 24.3124ZM2.49996 14.9374C1.82967 14.9374 1.25586 14.6988 0.778516 14.2214C0.301172 13.7441 0.0625 13.1703 0.0625 12.5C0.0625 11.8297 0.301172 11.2559 0.778516 10.7785C1.25586 10.3012 1.82967 10.0625 2.49996 10.0625C3.17024 10.0625 3.74406 10.3012 4.2214 10.7785C4.69875 11.2559 4.93742 11.8297 4.93742 12.5C4.93742 13.1703 4.69875 13.7441 4.2214 14.2214C3.74406 14.6988 3.17024 14.9374 2.49996 14.9374ZM2.49996 5.56244C1.82967 5.56244 1.25586 5.32377 0.778516 4.84642C0.301172 4.36911 0.0625 3.79529 0.0625 3.12498C0.0625 2.4547 0.301172 1.88088 0.778516 1.40354C1.25586 0.92622 1.82967 0.687561 2.49996 0.687561C3.17024 0.687561 3.74406 0.92622 4.2214 1.40354C4.69875 1.88088 4.93742 2.4547 4.93742 3.12498C4.93742 3.79529 4.69875 4.36911 4.2214 4.84642C3.74406 5.32377 3.17024 5.56244 2.49996 5.56244Z" fill="white"/>
</svg>
