<svg width="25" height="22" viewBox="0 0 25 22" fill="none" xmlns="http://www.w3.org/2000/svg">
<path d="M21.98 21.4H3.02C2.35165 21.4 1.71068 21.1345 1.23809 20.6619C0.765499 20.1893 0.5 19.5483 0.5 18.88V7H24.5V18.88C24.5 19.5483 24.2345 20.1893 23.7619 20.6619C23.2893 21.1345 22.6483 21.4 21.98 21.4ZM2.1 8.6V18.88C2.1 19.124 2.19693 19.358 2.36946 19.5305C2.45489 19.616 2.55631 19.6837 2.66793 19.73C2.77955 19.7762 2.89918 19.8 3.02 19.8H21.98C22.224 19.8 22.458 19.7031 22.6305 19.5305C22.8031 19.358 22.9 19.124 22.9 18.88V8.6H2.1Z" fill="white"/>
<path d="M24.5 8.59998H0.5V3.11998C0.5 2.45163 0.765499 1.81066 1.23809 1.33807C1.71068 0.865475 2.35165 0.599976 3.02 0.599976H21.98C22.6483 0.599976 23.2893 0.865475 23.7619 1.33807C24.2345 1.81066 24.5 2.45163 24.5 3.11998V8.59998ZM2.1 6.99998H22.9V3.11998C22.9 2.87598 22.8031 2.64197 22.6305 2.46944C22.458 2.2969 22.224 2.19998 21.98 2.19998H3.02C2.776 2.19998 2.542 2.2969 2.36946 2.46944C2.19693 2.64197 2.1 2.87598 2.1 3.11998V6.99998Z" fill="white"/>
<path d="M12.9711 1.03974L10.7625 7.5387L12.2774 8.05353L14.486 1.55457L12.9711 1.03974Z" fill="white"/>
<path d="M19.1361 1.03801L16.9286 7.53735L18.4436 8.05192L20.6511 1.55258L19.1361 1.03801Z" fill="white"/>
<path d="M6.5539 1.04291L4.34528 7.54187L5.86018 8.0567L8.06881 1.55774L6.5539 1.04291Z" fill="white"/>
<path d="M1.29999 7.79993V18.8799C1.29999 19.3361 1.4812 19.7736 1.80376 20.0961C2.12633 20.4187 2.56382 20.5999 3.01999 20.5999H21.98C22.4362 20.5999 22.8736 20.4187 23.1962 20.0961C23.5188 19.7736 23.7 19.3361 23.7 18.8799V7.79993H1.29999ZM15.524 14.1999L11.172 17.0319C11.1588 17.0405 11.1436 17.0454 11.1279 17.0461C11.1123 17.0468 11.0967 17.0433 11.0828 17.036C11.0689 17.0286 11.0573 17.0177 11.049 17.0043C11.0408 16.9909 11.0363 16.9756 11.036 16.9599V11.3599C11.0363 11.3442 11.0408 11.3289 11.049 11.3155C11.0573 11.3022 11.0689 11.2912 11.0828 11.2839C11.0967 11.2766 11.1123 11.2731 11.1279 11.2738C11.1436 11.2745 11.1588 11.2794 11.172 11.2879L15.524 14.0959C15.5327 14.1042 15.5396 14.1141 15.5444 14.1251C15.5491 14.1361 15.5516 14.1479 15.5516 14.1599C15.5516 14.1719 15.5491 14.1838 15.5444 14.1948C15.5396 14.2058 15.5327 14.2157 15.524 14.2239V14.1999Z" fill="white"/>
</svg>
