<svg width="34" height="25" viewBox="0 0 34 25" fill="none" xmlns="http://www.w3.org/2000/svg">
<mask id="path-1-inside-1_2_214" fill="white">
<path fill-rule="evenodd" clip-rule="evenodd" d="M31.0558 1.98301C30.9123 0.887797 29.9082 0.116247 28.8129 0.259705L1.98306 3.77406C0.887846 3.91752 0.116296 4.92166 0.259754 6.01687L0.358157 6.76812C0.498757 7.84151 1.4914 8.56972 2.53967 8.84003C4.64925 9.384 6.32087 11.1608 6.62116 13.4534C6.92145 15.7459 5.76385 17.8933 3.86554 18.9623C2.92225 19.4934 2.15066 20.4527 2.29126 21.5261L2.44728 22.7173C2.59074 23.8125 3.59488 24.584 4.6901 24.4406L31.52 20.9262C32.6152 20.7828 33.3867 19.7786 33.2433 18.6834L31.0558 1.98301Z"/>
</mask>
<path d="M31.52 20.9262L31.3901 19.9347L31.52 20.9262ZM2.53967 8.84003L2.28998 9.80835L2.53967 8.84003ZM4.6901 24.4406L4.81997 25.4321L4.6901 24.4406ZM2.11294 4.76559L28.9428 1.25124L28.6831 -0.731825L1.85318 2.78253L2.11294 4.76559ZM1.34969 6.63824L1.25128 5.887L-0.731776 6.14675L-0.633373 6.89799L1.34969 6.63824ZM2.28998 9.80835C4.0179 10.2539 5.38414 11.7091 5.62963 13.5832L7.61269 13.3235C7.25759 10.6126 5.2806 8.51409 2.78936 7.8717L2.28998 9.80835ZM5.62963 13.5832C5.87511 15.4574 4.92975 17.2153 3.37488 18.0909L4.35621 19.8336C6.59795 18.5713 7.96778 16.0344 7.61269 13.3235L5.62963 13.5832ZM3.43881 22.5874L3.28279 21.3962L1.29973 21.656L1.45575 22.8472L3.43881 22.5874ZM31.3901 19.9347L4.56022 23.4491L4.81997 25.4321L31.6499 21.9178L31.3901 19.9347ZM30.0642 2.11289L32.2518 18.8133L34.2348 18.5535L32.0473 1.85313L30.0642 2.11289ZM31.6499 21.9178C33.2927 21.7026 34.45 20.1964 34.2348 18.5535L32.2518 18.8133C32.3235 19.3609 31.9377 19.863 31.3901 19.9347L31.6499 21.9178ZM3.37488 18.0909C2.26461 18.7161 1.08272 19.9993 1.29973 21.656L3.28279 21.3962C3.2186 20.9062 3.57989 20.2707 4.35621 19.8336L3.37488 18.0909ZM-0.633373 6.89799C-0.416364 8.55472 1.05615 9.4902 2.28998 9.80835L2.78936 7.8717C1.92665 7.64924 1.41388 7.1283 1.34969 6.63824L-0.633373 6.89799ZM28.9428 1.25124C29.4904 1.17951 29.9925 1.56528 30.0642 2.11289L32.0473 1.85313C31.8321 0.210314 30.3259 -0.947013 28.6831 -0.731825L28.9428 1.25124ZM1.45575 22.8472C1.67094 24.49 3.17715 25.6473 4.81997 25.4321L4.56022 23.4491C4.01261 23.5208 3.51054 23.135 3.43881 22.5874L1.45575 22.8472ZM1.85318 2.78253C0.210362 2.99772 -0.946963 4.50393 -0.731776 6.14675L1.25128 5.887C1.17956 5.33939 1.56533 4.83732 2.11294 4.76559L1.85318 2.78253Z" fill="white" mask="url(#path-1-inside-1_2_214)"/>
<path d="M22.839 9.42304C22.987 9.68762 23.2882 9.82757 23.5856 9.76865L25.8529 9.31858L24.2831 11.0151C24.103 11.2099 24.0504 11.4872 24.1394 11.7306L24.1863 11.8318L25.3157 13.8497L23.2157 12.8807L23.1106 12.8428C22.8967 12.7831 22.6668 12.8288 22.4919 12.9657L22.4092 13.0408L20.8376 14.7387L21.1116 12.4422C21.1426 12.1789 21.0226 11.9243 20.8078 11.7797L20.7102 11.7244L18.6114 10.7561L20.8787 10.306C21.1389 10.2543 21.3435 10.0605 21.4147 9.81132L21.4367 9.70141L21.7096 7.4051L22.839 9.42304Z" stroke="white"/>
<path d="M12 2.74792L12.5 6.74792" stroke="white"/>
<path d="M15 18.7479L15.5 22.7479" stroke="white"/>
</svg>
