<svg width="39" height="39" viewBox="0 0 39 39" fill="none" xmlns="http://www.w3.org/2000/svg">
<mask id="mask0_2_197" style="mask-type:alpha" maskUnits="userSpaceOnUse" x="0" y="0" width="39" height="39">
<rect x="39" width="39" height="39" transform="rotate(90 39 0)" fill="#D9D9D9"/>
</mask>
<g mask="url(#mask0_2_197)">
<path d="M7.68759 19.5C7.68759 18.8297 7.92625 18.2559 8.40356 17.7785C8.88091 17.3012 9.45472 17.0625 10.125 17.0625C10.7953 17.0625 11.3691 17.3012 11.8465 17.7785C12.3238 18.2559 12.5625 18.8297 12.5625 19.5C12.5625 20.1702 12.3238 20.7441 11.8465 21.2214C11.3691 21.6987 10.7953 21.9374 10.125 21.9374C9.45472 21.9374 8.88091 21.6987 8.40356 21.2214C7.92625 20.7441 7.68759 20.1702 7.68759 19.5ZM17.0625 19.5C17.0625 18.8297 17.3012 18.2559 17.7786 17.7785C18.2559 17.3012 18.8297 17.0625 19.5 17.0625C20.1703 17.0625 20.7441 17.3012 21.2214 17.7785C21.6988 18.2559 21.9375 18.8297 21.9375 19.5C21.9375 20.1702 21.6988 20.7441 21.2214 21.2214C20.7441 21.6987 20.1703 21.9374 19.5 21.9374C18.8297 21.9374 18.2559 21.6987 17.7786 21.2214C17.3012 20.7441 17.0625 20.1702 17.0625 19.5ZM26.4375 19.5C26.4375 18.8297 26.6762 18.2559 27.1535 17.7785C27.6309 17.3012 28.2047 17.0625 28.875 17.0625C29.5453 17.0625 30.1191 17.3012 30.5964 17.7785C31.0737 18.2559 31.3124 18.8297 31.3124 19.5C31.3124 20.1702 31.0737 20.7441 30.5964 21.2214C30.1191 21.6987 29.5453 21.9374 28.875 21.9374C28.2047 21.9374 27.6309 21.6987 27.1535 21.2214C26.6762 20.7441 26.4375 20.1702 26.4375 19.5Z" fill="white"/>
</g>
</svg>
