<svg width="28" height="20" viewBox="0 0 28 20" fill="none" xmlns="http://www.w3.org/2000/svg">
<path d="M26.9414 1.55835C27.2407 1.5267 27.5 1.761 27.5 2.05737V17.9138C27.5 18.2148 27.2323 18.4523 26.9277 18.4128C17.6387 17.2103 11.7445 17.1755 2.88281 18.199L1.06934 18.4177C0.766167 18.4557 0.5 18.2198 0.5 17.9197V2.0603C0.5 1.80077 0.698736 1.58876 0.949219 1.56128H1.05957C10.9804 2.62907 17.0227 2.60738 26.9414 1.55835Z" stroke="white"/>
<path d="M16.4539 9.61843C16.7428 9.80098 16.7636 10.207 16.5131 10.4208L16.4596 10.4602L12.6193 12.9613C12.288 13.177 11.8487 12.941 11.8459 12.5457L11.8119 7.59656C11.8096 7.22603 12.1926 6.99055 12.5158 7.13663L12.5795 7.17038L16.4539 9.61843Z" stroke="white"/>
</svg>
